<svg xmlns="http://www.w3.org/2000/svg" width="284" height="112" viewBox="0 0 142 56" fill="none"><script xmlns=""/>
<g clip-path="url(#clip0_6742_30900)">
<path d="M58.7742 33.1482C58.4855 32.8625 58.2586 32.5206 58.1076 32.1437C57.9567 31.7668 57.8849 31.363 57.8968 30.9572C57.9106 30.2101 58.0856 29.4747 58.4101 28.8014L65.6666 12.6148C65.8518 12.1358 66.1699 11.7193 66.5835 11.4142C67.0057 11.1617 67.4887 11.0283 67.9808 11.0283C68.473 11.0283 68.9559 11.1617 69.3782 11.4142C69.7888 11.7175 70.1052 12.1307 70.2907 12.6061L77.5516 28.8057C77.8728 29.4678 78.0479 30.1911 78.0649 30.9266C78.0784 31.3371 78.0075 31.746 77.8565 32.1281C77.7056 32.5102 77.4779 32.8574 77.1874 33.1482C76.5219 33.7647 75.6554 34.1196 74.7481 34.1472L72.0544 28.258H63.8766L61.1784 34.1472C60.2824 34.1155 59.4283 33.7606 58.7742 33.1482ZM70.6197 24.2004L67.3162 15.9626L66.8774 16.1554L67.7549 18.3112L65.3156 24.2004H70.6197Z" fill="white"/>
<path d="M84.1325 15.1785H76.3013C76.3013 12.4208 77.5472 11.042 80.0392 11.042H96.7107C96.7107 13.7967 95.4647 15.1755 92.9728 15.1785H88.9058V30.6946C88.9347 31.1912 88.8386 31.6872 88.6263 32.1372C88.4141 32.5873 88.0924 32.9771 87.6905 33.2711C86.8745 33.8583 85.69 34.1475 84.1281 34.1475L84.1325 15.1785Z" fill="white"/>
<path d="M103.107 33.1001C101.714 32.4716 100.506 31.497 99.5974 30.2695C98.7521 29.1638 98.2901 27.8133 98.2812 26.4222V18.7627C98.2901 17.3729 98.7521 16.0239 99.5974 14.9199C100.507 13.6922 101.715 12.7165 103.107 12.0848C104.63 11.3975 106.282 11.042 107.953 11.042C109.624 11.042 111.276 11.3975 112.799 12.0848C114.191 12.7165 115.399 13.6922 116.308 14.9199C117.154 16.0239 117.616 17.3729 117.625 18.7627V26.4222C117.616 27.8133 117.154 29.1638 116.308 30.2695C115.4 31.497 114.191 32.4716 112.799 33.1001C111.277 33.7902 109.624 34.1472 107.953 34.1472C106.281 34.1472 104.629 33.7902 103.107 33.1001ZM111.518 28.9987C111.949 28.7001 112.3 28.3001 112.54 27.834C112.781 27.3679 112.902 26.85 112.895 26.3258V18.8635C112.902 18.34 112.78 17.8229 112.54 17.3575C112.3 16.8922 111.949 16.493 111.518 16.195C110.451 15.5222 109.215 15.1652 107.953 15.1652C106.691 15.1652 105.455 15.5222 104.388 16.195C103.955 16.4915 103.601 16.8901 103.359 17.3555C103.116 17.8209 102.992 18.3389 102.998 18.8635V26.3127C102.99 26.8368 103.112 27.3547 103.352 27.8208C103.593 28.2869 103.944 28.6869 104.375 28.9856C105.442 29.6583 106.678 30.0154 107.94 30.0154C109.202 30.0154 110.437 29.6583 111.504 28.9856L111.518 28.9987Z" fill="white"/>
<path d="M119.691 14.4819C119.681 13.9872 119.794 13.4976 120.02 13.0572C120.246 12.6167 120.577 12.239 120.985 11.958C121.998 11.2795 123.203 10.9459 124.42 11.0071L130.839 27.4215L130.041 29.6125L130.392 29.7746L137.293 11.0466C138.509 10.9828 139.714 11.3132 140.728 11.9887C141.134 12.2714 141.465 12.6502 141.689 13.0914C141.913 13.5326 142.025 14.0223 142.013 14.517V34.1477C138.951 34.1477 137.42 33.0215 137.42 30.7693V21.5674L138.578 18.3511L138.192 18.2197L132.721 32.8857C132.571 33.2533 132.314 33.5677 131.984 33.7884C131.656 34.0201 131.263 34.1442 130.861 34.1433C130.451 34.1466 130.05 34.025 129.712 33.7948C129.373 33.5647 129.113 33.2368 128.966 32.855L123.508 18.1539L123.126 18.3117L124.28 21.5323V30.7693C124.28 33.0215 122.75 34.1477 119.691 34.1477V14.4819Z" fill="white"/>
<path d="M74.2964 43.4017C74.2964 43.7741 74.077 43.9626 73.6427 43.9626V43.5244C73.7009 43.4655 73.751 43.3992 73.7918 43.3272L73.7655 43.3009C73.6293 43.4938 73.4545 43.6564 73.2522 43.7785C73.0468 43.9006 72.8112 43.9628 72.5722 43.9582C72.3473 43.9615 72.1252 43.9072 71.9273 43.8004C71.7423 43.699 71.5901 43.547 71.4885 43.3622C71.3824 43.1658 71.328 42.9457 71.3306 42.7225V40.8646C71.3246 40.796 71.3368 40.727 71.3661 40.6647C71.3953 40.6023 71.4406 40.5489 71.4973 40.5097C71.656 40.4248 71.8355 40.3868 72.015 40.4001V42.6787C72.0111 42.7693 72.0253 42.8598 72.057 42.9449C72.0886 43.0299 72.137 43.1078 72.1993 43.1738C72.2723 43.239 72.3577 43.2888 72.4504 43.3204C72.5431 43.352 72.6412 43.3648 72.7389 43.3579C72.9684 43.3663 73.1921 43.2845 73.3619 43.13C73.4432 43.0621 73.5082 42.9768 73.5522 42.8805C73.5963 42.7843 73.6182 42.6793 73.6164 42.5735V40.8646C73.6107 40.7965 73.6227 40.7281 73.6511 40.6659C73.6795 40.6038 73.7234 40.55 73.7787 40.5097C73.9357 40.4247 74.1139 40.3866 74.292 40.4001L74.2964 43.4017Z" fill="#FAFAFA"/>
<path d="M75.6915 43.6651C75.5099 43.4518 75.4159 43.1779 75.4282 42.8982V39.4935C75.4222 39.4245 75.4349 39.3551 75.465 39.2926C75.4951 39.2301 75.5415 39.1769 75.5993 39.1386C75.7558 39.0519 75.9341 39.0123 76.1126 39.0247V42.8719C76.1016 43.0054 76.1407 43.1382 76.2223 43.2444C76.2701 43.2861 76.3258 43.3177 76.3861 43.3373C76.4465 43.3568 76.5101 43.364 76.5733 43.3583C76.7417 43.3588 76.907 43.3133 77.0515 43.2269C77.1203 43.3023 77.1579 43.4009 77.1568 43.5029C77.1538 43.5665 77.1355 43.6283 77.1034 43.6833C77.0714 43.7382 77.0264 43.7846 76.9725 43.8184C76.8269 43.9173 76.6525 43.9651 76.4768 43.9543C76.3327 43.9659 76.1878 43.946 76.0522 43.8961C75.9166 43.8461 75.7935 43.7673 75.6915 43.6651Z" fill="#FAFAFA"/>
<path d="M78.6922 43.6648C78.5217 43.4464 78.4346 43.1746 78.4465 42.8979V40.9962H77.7884C77.7794 40.8534 77.818 40.7117 77.8981 40.5931C77.9344 40.5498 77.9802 40.5154 78.0319 40.4926C78.0836 40.4698 78.1399 40.4592 78.1964 40.4616H78.4596V39.835C78.4545 39.7665 78.4671 39.6979 78.4963 39.6357C78.5255 39.5735 78.5703 39.5199 78.6263 39.4801C78.7789 39.3959 78.9527 39.3579 79.1265 39.3705V40.4616H80.0347C80.0468 40.6047 80.008 40.7475 79.925 40.8647C79.8793 40.9118 79.8237 40.948 79.7622 40.9708C79.7007 40.9935 79.6349 41.0022 79.5696 40.9962H79.1309V42.8716C79.1185 43.0032 79.1526 43.135 79.2274 43.2441C79.2731 43.2862 79.3272 43.3182 79.3862 43.3378C79.4452 43.3575 79.5077 43.3643 79.5696 43.358C79.7336 43.3567 79.8943 43.3113 80.0347 43.2266C80.0755 43.2672 80.1065 43.3166 80.1252 43.3711C80.1439 43.4255 80.1499 43.4835 80.1427 43.5406C80.1355 43.5977 80.1153 43.6524 80.0836 43.7005C80.052 43.7487 80.0097 43.7889 79.9601 43.8181C79.8082 43.9178 79.6281 43.9655 79.4468 43.954C79.3075 43.9637 79.1677 43.9428 79.0374 43.8929C78.907 43.8429 78.7892 43.765 78.6922 43.6648Z" fill="#FAFAFA"/>
<path d="M81.1799 39.8177C81.1324 39.7766 81.0944 39.7257 81.0684 39.6687C81.0423 39.6116 81.0288 39.5496 81.0288 39.4869C81.0288 39.4241 81.0423 39.3621 81.0684 39.3051C81.0944 39.248 81.1324 39.1972 81.1799 39.156C81.2754 39.0684 81.4012 39.0213 81.5308 39.0246C81.5937 39.0229 81.6563 39.0337 81.715 39.0562C81.7738 39.0788 81.8275 39.1127 81.873 39.156C81.9175 39.1989 81.9528 39.2503 81.977 39.3072C82.0011 39.364 82.0135 39.4251 82.0135 39.4869C82.0135 39.5486 82.0011 39.6097 81.977 39.6665C81.9528 39.7234 81.9175 39.7748 81.873 39.8177C81.8272 39.8604 81.7734 39.8937 81.7147 39.9155C81.6559 39.9373 81.5935 39.9472 81.5308 39.9448C81.4017 39.9497 81.2758 39.9041 81.1799 39.8177ZM81.1799 40.865C81.1738 40.7964 81.186 40.7274 81.2153 40.665C81.2446 40.6027 81.2899 40.5492 81.3466 40.51C81.5021 40.4254 81.6788 40.3874 81.8555 40.4005V43.4678C81.8599 43.5355 81.8469 43.6033 81.8177 43.6647C81.7885 43.726 81.7441 43.7789 81.6888 43.8183C81.5346 43.9069 81.3571 43.9467 81.1799 43.9322V40.865Z" fill="#FAFAFA"/>
<path d="M82.8994 40.957C82.8994 40.5846 83.1144 40.4005 83.5487 40.4005V40.8387C83.4943 40.8993 83.4445 40.9637 83.3995 41.0315L83.4346 41.0622C83.5527 40.8767 83.7009 40.7123 83.8734 40.5758C84.042 40.4634 84.241 40.4053 84.4437 40.4093C84.6298 40.401 84.8135 40.4545 84.9659 40.5616C85.1183 40.6686 85.2309 40.8231 85.286 41.0009C85.3897 40.817 85.5409 40.6643 85.7238 40.5587C85.9067 40.4531 86.1146 40.3985 86.3258 40.4005C86.4678 40.3935 86.6095 40.4195 86.7397 40.4765C86.8699 40.5336 86.9851 40.6201 87.076 40.7292C87.2676 40.9798 87.3626 41.2908 87.3437 41.6056V43.5073C87.3494 43.5752 87.337 43.6434 87.3077 43.705C87.2784 43.7666 87.2333 43.8193 87.1769 43.8578C87.0228 43.9464 86.8453 43.9862 86.668 43.9718V41.6494C86.668 41.2112 86.4925 40.9965 86.1416 40.9965C86.0506 40.9949 85.9603 41.0115 85.8759 41.0453C85.7915 41.0792 85.7147 41.1296 85.6502 41.1937C85.5802 41.265 85.526 41.3502 85.4912 41.4438C85.4565 41.5375 85.4419 41.6374 85.4484 41.737V43.4897C85.454 43.5578 85.4421 43.6262 85.4136 43.6884C85.3852 43.7506 85.3413 43.8044 85.286 43.8447C85.1335 43.9288 84.9597 43.9669 84.7859 43.9542V41.6494C84.7952 41.4801 84.749 41.3124 84.6543 41.1718C84.6067 41.1115 84.545 41.064 84.4745 41.0334C84.4041 41.0028 84.3272 40.9901 84.2507 40.9965C84.1572 40.9931 84.0642 41.0106 83.9784 41.0478C83.8927 41.0849 83.8163 41.1408 83.7549 41.2112C83.6212 41.3617 83.5505 41.5578 83.5575 41.7589V43.5117C83.5632 43.5796 83.5508 43.6478 83.5215 43.7094C83.4922 43.771 83.4471 43.8237 83.3908 43.8622C83.2366 43.9508 83.0591 43.9906 82.8818 43.9761L82.8994 40.957Z" fill="#FAFAFA"/>
<path d="M88.6075 43.6436C88.4919 43.5358 88.4002 43.405 88.3381 43.2596C88.2761 43.1143 88.2451 42.9576 88.2472 42.7997C88.2492 42.6417 88.2843 42.4859 88.3501 42.3422C88.4159 42.1986 88.5111 42.0702 88.6294 41.9654C88.912 41.7461 89.2634 41.6343 89.6209 41.6499C89.8189 41.6435 90.016 41.6792 90.199 41.7548C90.3821 41.8303 90.547 41.9439 90.6826 42.0881L90.7134 42.0618C90.6538 41.9986 90.5908 41.9386 90.5247 41.8821V41.6499C90.53 41.5542 90.5139 41.4585 90.4774 41.3698C90.441 41.2811 90.3852 41.2016 90.3141 41.1372C90.1439 41.0064 89.9317 40.9425 89.7175 40.9576C89.5172 40.9431 89.3169 40.9856 89.1398 41.0802C88.9628 41.1748 88.8162 41.3177 88.7172 41.4921C88.6376 41.4575 88.567 41.405 88.511 41.3388C88.4623 41.2809 88.4345 41.2084 88.432 41.1328C88.4354 41.0633 88.4537 40.9953 88.4854 40.9334C88.5172 40.8714 88.5618 40.8169 88.6163 40.7735C88.7601 40.6509 88.9272 40.5585 89.1076 40.5018C89.3204 40.4344 89.5424 40.4004 89.7657 40.4011C90.145 40.379 90.5194 40.4959 90.8187 40.7297C90.944 40.8381 91.0437 40.9729 91.1104 41.1245C91.1772 41.2761 91.2094 41.4406 91.2047 41.6061V43.4333C91.2118 43.5049 91.201 43.5772 91.1735 43.6436C91.1459 43.7101 91.1024 43.7688 91.0468 43.8145C90.901 43.9043 90.7306 43.9457 90.5598 43.9328V43.6261C90.6563 43.5209 90.709 43.4596 90.7177 43.4464L90.6914 43.4202C90.5521 43.588 90.376 43.7216 90.1766 43.8105C89.9773 43.8994 89.7601 43.9413 89.542 43.9328C89.2057 43.9522 88.8738 43.8495 88.6075 43.6436ZM90.3141 43.2712C90.383 43.2206 90.4392 43.1547 90.478 43.0786C90.5169 43.0025 90.5374 42.9184 90.5379 42.833C90.5412 42.7426 90.5226 42.6528 90.4836 42.5711C90.4446 42.4895 90.3865 42.4185 90.3141 42.3641C90.1338 42.2412 89.9179 42.1811 89.6999 42.1932C89.4929 42.1818 89.2883 42.2422 89.1208 42.3641C89.0552 42.4225 89.0028 42.4941 88.9668 42.5741C88.9309 42.6542 88.9123 42.7409 88.9123 42.8286C88.9123 42.9163 88.9309 43.0031 88.9668 43.0831C89.0028 43.1632 89.0552 43.2347 89.1208 43.2931C89.2851 43.4106 89.485 43.4679 89.6867 43.4552C89.9101 43.4619 90.1298 43.3975 90.3141 43.2712Z" fill="#FAFAFA"/>
<path d="M92.99 43.6648C92.8195 43.4464 92.7324 43.1746 92.7443 42.8979V40.9962H92.0862C92.0773 40.8534 92.1158 40.7117 92.1959 40.5931C92.2315 40.5501 92.2766 40.5159 92.3275 40.4931C92.3785 40.4703 92.434 40.4596 92.4899 40.4616H92.7575V39.835C92.7523 39.7665 92.7649 39.6979 92.7941 39.6357C92.8234 39.5735 92.8681 39.5199 92.9242 39.4801C93.0768 39.3959 93.2505 39.3579 93.4243 39.3705V40.4616H94.3325C94.3458 40.6055 94.3052 40.7491 94.2184 40.8647C94.1733 40.9112 94.1184 40.9471 94.0577 40.9698C93.997 40.9925 93.932 41.0015 93.8674 40.9962H93.4287V42.8716C93.4163 43.0032 93.4505 43.135 93.5252 43.2441C93.5709 43.2862 93.6251 43.3182 93.6841 43.3378C93.7431 43.3575 93.8056 43.3643 93.8674 43.358C94.0314 43.3561 94.1919 43.3107 94.3325 43.2266C94.3733 43.2672 94.4043 43.3166 94.423 43.3711C94.4418 43.4255 94.4478 43.4835 94.4406 43.5406C94.4334 43.5977 94.4132 43.6524 94.3815 43.7005C94.3498 43.7487 94.3076 43.7889 94.2579 43.8181C94.105 43.9153 93.9256 43.9627 93.7446 43.954C93.6053 43.9637 93.4656 43.9428 93.3352 43.8929C93.2048 43.8429 93.087 43.765 92.99 43.6648Z" fill="#FAFAFA"/>
<path d="M96.0526 43.7923C95.8414 43.6952 95.6598 43.544 95.5261 43.3541C95.3989 43.1634 95.3316 42.9391 95.3331 42.71V41.7284C95.3303 41.4896 95.4007 41.2557 95.5349 41.058C95.6724 40.8589 95.858 40.6976 96.0745 40.5892C96.3017 40.4797 96.5506 40.4229 96.8028 40.4229C97.055 40.4229 97.304 40.4797 97.5311 40.5892C97.7406 40.6869 97.9207 40.838 98.0532 41.0273C98.1804 41.2259 98.246 41.4577 98.2418 41.6934V42.1316C98.2421 42.1698 98.234 42.2077 98.2181 42.2425C98.2021 42.2773 98.1788 42.3083 98.1497 42.3331C98.0907 42.3896 98.0121 42.421 97.9303 42.4208H96V42.6793C95.9955 42.7774 96.011 42.8754 96.0457 42.9673C96.0804 43.0593 96.1335 43.1431 96.2018 43.2139C96.3695 43.3574 96.5868 43.4297 96.8072 43.4155C97.0206 43.4294 97.232 43.3673 97.4039 43.2402C97.4703 43.1829 97.523 43.1114 97.5579 43.031C97.5929 42.9506 97.6092 42.8633 97.6057 42.7757C97.7452 42.7573 97.887 42.785 98.0093 42.8546C98.0601 42.8854 98.1016 42.9293 98.1294 42.9818C98.1573 43.0343 98.1703 43.0933 98.1672 43.1525C98.165 43.229 98.1471 43.3043 98.1147 43.3736C98.0822 43.4429 98.0359 43.5049 97.9786 43.5557C97.8371 43.6942 97.6662 43.7991 97.4784 43.8624C97.2631 43.9392 97.0359 43.9777 96.8072 43.9763C96.5447 43.9745 96.2863 43.9115 96.0526 43.7923ZM97.6188 41.8818V41.6846C97.622 41.586 97.6037 41.4879 97.565 41.3971C97.5264 41.3063 97.4684 41.225 97.3951 41.1588C97.2318 41.0196 97.0217 40.9476 96.8072 40.9572C96.5925 40.9462 96.3819 41.0184 96.2193 41.1588C96.1466 41.2252 96.0893 41.3066 96.0514 41.3975C96.0135 41.4883 95.9959 41.5863 96 41.6846V41.8818H97.6188Z" fill="#FAFAFA"/>
<path d="M102.296 43.8402C102.103 43.7827 101.929 43.6754 101.791 43.5291C101.678 43.4109 101.612 43.2547 101.607 43.0909C101.607 42.8543 101.761 42.7316 102.046 42.7185C102.058 42.8236 102.092 42.925 102.146 43.0163C102.199 43.1076 102.271 43.1867 102.357 43.2487C102.54 43.3709 102.756 43.4323 102.976 43.4239C103.181 43.4343 103.385 43.3968 103.572 43.3144C103.637 43.2871 103.691 43.2411 103.729 43.1825C103.766 43.1239 103.785 43.0553 103.783 42.9857C103.785 42.9172 103.768 42.8493 103.735 42.7893C103.702 42.7292 103.653 42.679 103.594 42.644C103.375 42.5274 103.138 42.4489 102.892 42.4117C102.638 42.3566 102.388 42.2804 102.147 42.1839C101.983 42.1197 101.841 42.0121 101.734 41.8728C101.639 41.7206 101.592 41.5436 101.598 41.3645C101.598 41.1869 101.656 41.0143 101.765 40.8737C101.881 40.7266 102.032 40.6106 102.204 40.5363C102.423 40.4496 102.657 40.4079 102.892 40.4136C103.123 40.4105 103.352 40.443 103.572 40.51C103.759 40.5604 103.931 40.6551 104.073 40.7861C104.134 40.8409 104.183 40.9086 104.215 40.9843C104.248 41.06 104.264 41.1419 104.261 41.2242C104.261 41.4521 104.09 41.5704 103.752 41.5836C103.743 41.4972 103.716 41.4137 103.673 41.3382C103.63 41.2628 103.572 41.1971 103.502 41.1454C103.329 41.0253 103.12 40.9667 102.91 40.9789C102.738 40.9723 102.566 41.0116 102.414 41.0928C102.357 41.1192 102.309 41.1612 102.275 41.2139C102.24 41.2667 102.222 41.328 102.221 41.3908C102.22 41.4512 102.236 41.5107 102.267 41.5625C102.298 41.6144 102.343 41.6566 102.397 41.6843C102.586 41.7756 102.787 41.8405 102.993 41.8771C103.376 41.9365 103.742 42.0753 104.068 42.2846C104.179 42.3698 104.268 42.4803 104.328 42.6069C104.387 42.7334 104.416 42.8723 104.41 43.012C104.415 43.1564 104.382 43.2994 104.314 43.427C104.247 43.5546 104.147 43.6623 104.024 43.7394C103.697 43.9285 103.322 44.0184 102.945 43.9979C102.722 43.9788 102.503 43.9256 102.296 43.8402Z" fill="#FAFAFA"/>
<path d="M106.2 43.7968C105.984 43.7017 105.798 43.5503 105.66 43.3586C105.532 43.1767 105.464 42.9589 105.467 42.7364V41.6497C105.465 41.4224 105.531 41.1996 105.656 41.0099C105.792 40.8188 105.977 40.6675 106.191 40.5717C106.437 40.462 106.703 40.4053 106.972 40.4053C107.241 40.4053 107.507 40.462 107.753 40.5717C107.967 40.6675 108.152 40.8188 108.288 41.0099C108.418 41.1979 108.487 41.4212 108.486 41.6497V42.7276C108.487 42.9506 108.418 43.1683 108.288 43.3498C108.153 43.543 107.966 43.6946 107.749 43.788C107.504 43.8957 107.239 43.9495 106.972 43.9458C106.707 43.9532 106.443 43.9023 106.2 43.7968ZM107.586 43.1833C107.66 43.126 107.719 43.052 107.759 42.9675C107.799 42.8829 107.818 42.7902 107.815 42.6969V41.6891C107.817 41.5927 107.798 41.497 107.758 41.4091C107.719 41.3211 107.66 41.2431 107.586 41.1808C107.405 41.0578 107.191 40.992 106.972 40.992C106.753 40.992 106.539 41.0578 106.358 41.1808C106.284 41.2425 106.224 41.3203 106.185 41.4085C106.145 41.4966 106.126 41.5926 106.13 41.6891V42.6969C106.127 42.7898 106.146 42.882 106.184 42.9664C106.223 43.0508 106.281 43.1251 106.354 43.1833C106.533 43.3125 106.751 43.376 106.972 43.363C107.192 43.3768 107.409 43.3132 107.586 43.1833Z" fill="#FAFAFA"/>
<path d="M109.754 43.6649C109.576 43.4501 109.483 43.1768 109.495 42.898V39.4933C109.489 39.4247 109.501 39.3558 109.531 39.2934C109.56 39.2311 109.605 39.1776 109.662 39.1384C109.82 39.0522 110 39.0127 110.18 39.0245V42.8717C110.167 43.0046 110.205 43.1374 110.285 43.2442C110.333 43.286 110.39 43.3177 110.451 43.3372C110.512 43.3568 110.576 43.3639 110.64 43.3581C110.809 43.3581 110.974 43.3127 111.118 43.2267C111.186 43.3025 111.222 43.4012 111.219 43.5027C111.218 43.566 111.2 43.6279 111.169 43.6829C111.138 43.738 111.093 43.7844 111.039 43.8182C110.894 43.9165 110.719 43.9643 110.544 43.9541C110.399 43.9651 110.254 43.945 110.117 43.8951C109.981 43.8453 109.857 43.7667 109.754 43.6649Z" fill="#FAFAFA"/>
<path d="M115.198 43.4026C115.198 43.7751 114.979 43.9635 114.54 43.9635V43.5253C114.6 43.4676 114.65 43.4011 114.689 43.3281L114.663 43.3018C114.529 43.4967 114.354 43.6597 114.15 43.7794C113.95 43.8925 113.724 43.9537 113.495 43.9576C113.265 43.9614 113.037 43.9077 112.834 43.8014C112.649 43.6993 112.497 43.5475 112.395 43.3632C112.289 43.1668 112.234 42.9466 112.237 42.7234V40.8655C112.232 40.797 112.244 40.7284 112.274 40.6662C112.303 40.604 112.348 40.5504 112.404 40.5106C112.563 40.4262 112.742 40.3882 112.921 40.401V42.6796C112.917 42.7702 112.932 42.8608 112.963 42.9458C112.995 43.0308 113.043 43.1087 113.106 43.1748C113.179 43.2399 113.264 43.2897 113.357 43.3214C113.449 43.353 113.548 43.3657 113.645 43.3588C113.875 43.3672 114.098 43.2854 114.268 43.1309C114.35 43.063 114.415 42.9778 114.459 42.8815C114.503 42.7852 114.525 42.6803 114.523 42.5744V40.8655C114.518 40.7975 114.53 40.7294 114.559 40.6674C114.587 40.6054 114.63 40.5515 114.685 40.5106C114.844 40.4257 115.023 40.3877 115.203 40.401L115.198 43.4026Z" fill="#FAFAFA"/>
<path d="M117.111 43.6648C116.939 43.4473 116.852 43.1748 116.865 42.8979V40.9962H116.207C116.196 40.8532 116.235 40.7108 116.317 40.5931C116.353 40.5501 116.398 40.5159 116.449 40.4931C116.5 40.4703 116.555 40.4596 116.611 40.4616H116.879V39.835C116.873 39.7669 116.885 39.6985 116.913 39.6364C116.942 39.5742 116.986 39.5204 117.041 39.4801C117.194 39.3959 117.367 39.3579 117.541 39.3705V40.4616H118.454C118.465 40.6053 118.425 40.7482 118.34 40.8648C118.294 40.9112 118.24 40.9471 118.179 40.9698C118.118 40.9925 118.053 41.0015 117.989 40.9962H117.55V42.8716C117.54 43.0031 117.574 43.1342 117.646 43.2441C117.692 43.2862 117.746 43.3182 117.805 43.3378C117.864 43.3575 117.927 43.3643 117.989 43.358C118.153 43.3574 118.314 43.3119 118.454 43.2266C118.49 43.2626 118.518 43.3057 118.537 43.3532C118.556 43.4007 118.565 43.4516 118.563 43.5026C118.56 43.5662 118.542 43.628 118.51 43.683C118.478 43.7379 118.433 43.7843 118.379 43.8181C118.227 43.9178 118.047 43.9655 117.866 43.954C117.726 43.9649 117.586 43.9446 117.456 43.8946C117.325 43.8446 117.207 43.766 117.111 43.6648Z" fill="#FAFAFA"/>
<path d="M119.722 39.8177C119.677 39.7748 119.642 39.7234 119.618 39.6666C119.593 39.6097 119.581 39.5486 119.581 39.4869C119.581 39.4251 119.593 39.364 119.618 39.3072C119.642 39.2504 119.677 39.199 119.722 39.1561C119.817 39.0688 119.943 39.0218 120.073 39.0246C120.201 39.0211 120.325 39.0683 120.419 39.1561C120.464 39.199 120.499 39.2504 120.523 39.3072C120.547 39.364 120.56 39.4251 120.56 39.4869C120.56 39.5486 120.547 39.6097 120.523 39.6666C120.499 39.7234 120.464 39.7748 120.419 39.8177C120.325 39.9043 120.2 39.95 120.073 39.9448C119.944 39.9493 119.818 39.9037 119.722 39.8177ZM119.722 40.865C119.716 40.7965 119.729 40.7278 119.758 40.6656C119.787 40.6034 119.832 40.5499 119.888 40.51C120.046 40.4262 120.224 40.3883 120.402 40.4005V43.4678C120.406 43.5361 120.393 43.6044 120.363 43.666C120.333 43.7275 120.287 43.78 120.23 43.8183C120.076 43.907 119.899 43.9467 119.722 43.9323V40.865Z" fill="#FAFAFA"/>
<path d="M122.302 43.7966C122.086 43.702 121.901 43.5505 121.766 43.3585C121.637 43.1769 121.568 42.9592 121.569 42.7362V41.6495C121.568 41.4218 121.635 41.1991 121.762 41.0098C121.898 40.8186 122.083 40.6674 122.297 40.5716C122.542 40.462 122.807 40.4053 123.076 40.4053C123.344 40.4053 123.61 40.462 123.855 40.5716C124.069 40.6692 124.255 40.82 124.394 41.0098C124.523 41.1981 124.59 41.4215 124.587 41.6495V42.7275C124.59 42.95 124.523 43.1678 124.394 43.3497C124.257 43.5414 124.071 43.6928 123.855 43.7879C123.61 43.8955 123.345 43.9494 123.078 43.9456C122.811 43.9529 122.546 43.9021 122.302 43.7966ZM123.692 43.1832C123.765 43.1249 123.823 43.0507 123.861 42.9663C123.9 42.8819 123.919 42.7896 123.916 42.6968V41.689C123.919 41.5925 123.901 41.4964 123.861 41.4083C123.822 41.3202 123.762 41.2423 123.688 41.1807C123.507 41.058 123.294 40.9925 123.076 40.9925C122.858 40.9925 122.644 41.058 122.464 41.1807C122.389 41.2423 122.33 41.3202 122.291 41.4083C122.251 41.4964 122.232 41.5925 122.236 41.689V42.6968C122.233 42.7896 122.251 42.8819 122.29 42.9663C122.329 43.0507 122.387 43.1249 122.459 43.1832C122.644 43.3006 122.857 43.363 123.076 43.363C123.294 43.363 123.508 43.3006 123.692 43.1832Z" fill="#FAFAFA"/>
<path d="M125.601 40.9569C125.601 40.5845 125.82 40.4004 126.259 40.4004V40.8386C126.203 40.899 126.151 40.9634 126.105 41.0314L126.14 41.0621C126.282 40.8597 126.47 40.6944 126.689 40.5801C126.905 40.4584 127.151 40.3964 127.399 40.4004C127.561 40.3909 127.723 40.4156 127.874 40.473C128.025 40.5304 128.162 40.6192 128.277 40.7335C128.388 40.8496 128.473 40.9874 128.529 41.1382C128.584 41.289 128.607 41.4496 128.597 41.6098V43.5115C128.601 43.5793 128.588 43.6471 128.559 43.7084C128.53 43.7698 128.486 43.8227 128.43 43.8621C128.276 43.9507 128.099 43.9904 127.921 43.976V41.6931C127.929 41.6004 127.915 41.5073 127.882 41.4204C127.849 41.3335 127.797 41.255 127.73 41.1905C127.663 41.1261 127.582 41.0772 127.494 41.0474C127.406 41.0176 127.312 41.0077 127.219 41.0183C127.067 41.0201 126.917 41.0561 126.781 41.1234C126.647 41.1887 126.533 41.2867 126.447 41.4083C126.366 41.5234 126.323 41.6615 126.324 41.8026V43.5115C126.33 43.58 126.317 43.6487 126.288 43.7109C126.259 43.7731 126.214 43.8267 126.158 43.8665C125.999 43.9509 125.82 43.9889 125.64 43.976L125.601 40.9569Z" fill="#FAFAFA"/>
<mask id="mask0_6742_30900" style="mask-type:alpha" maskUnits="userSpaceOnUse" x="-1" y="0" width="54" height="55">
<rect x="-0.515625" width="52.6162" height="54.7826" fill="#D9D9D9"/>
</mask>
<g mask="url(#mask0_6742_30900)">
<path d="M28.539 40.537C27.6225 44.9433 26.3899 47.7913 25.4974 48.9834C24.6049 47.7913 23.3763 44.9433 22.4598 40.537C22.2837 39.6989 22.1196 38.7998 21.9715 37.8518C21.9435 37.6809 21.9195 37.5141 21.8955 37.3473C21.7434 36.322 21.6113 35.2357 21.4953 34.0924C21.4953 33.9663 21.4712 33.8402 21.4592 33.7141C21.3792 32.8068 21.3112 31.8629 21.2631 30.8661C21.2351 30.3494 21.2111 29.8245 21.1991 29.2834C21.1871 28.7423 21.1751 28.1727 21.1671 27.599C21.1671 27.3549 21.1671 27.1149 21.1671 26.8667C21.1671 26.6185 21.1671 26.3785 21.1671 26.1344C21.1671 25.5607 21.1671 24.9992 21.1991 24.4459C21.1991 23.9984 21.2271 23.563 21.2511 23.1318C21.2552 23.0586 21.2552 22.9852 21.2511 22.9121C21.2531 22.8904 21.2531 22.8686 21.2511 22.847C21.2263 22.38 21.0244 21.9411 20.6878 21.6224C20.3511 21.3037 19.9061 21.1301 19.4462 21.1382C19.0866 21.1377 18.7348 21.2437 18.4336 21.4433L18.2775 21.5369C17.9214 21.7566 17.5692 21.9763 17.225 22.2001C16.8808 22.4238 16.6247 22.6069 16.3285 22.7859C15.6762 23.1928 15.0478 23.6363 14.4355 24.0716C14.2914 24.1693 14.1513 24.2669 14.0073 24.3727C12.8346 25.1864 11.7341 26.0367 10.7015 26.8667C9.96912 27.4566 9.27675 28.0384 8.62441 28.6243C3.33759 33.3398 0.628149 37.7216 2.05291 40.1343C2.76529 41.3548 4.45419 41.9203 6.79943 41.9203C9.14468 41.9203 12.1263 41.3589 15.5161 40.2929C15.4921 40.1424 15.464 39.9878 15.44 39.8454C15.2439 38.7021 15.0758 37.5141 14.9398 36.2976C11.3819 37.4653 8.58438 37.9494 6.79943 37.9494C6.45925 37.9494 6.18311 37.9494 5.96299 37.9128C6.57932 36.5539 8.48033 34.1128 11.8941 31.1224C12.5505 30.5528 13.2589 29.9669 14.0273 29.3648C14.1594 29.2549 14.2994 29.1532 14.4275 29.0434C15.2559 28.4087 16.1524 27.7536 17.1089 27.0945C17.1089 28.189 17.1369 29.2671 17.181 30.3209C17.181 30.7278 17.213 31.1346 17.237 31.5415C17.261 31.9483 17.281 32.2535 17.305 32.6115C17.3571 33.3682 17.4171 34.1128 17.4931 34.8451C17.4931 35.0242 17.5291 35.195 17.5492 35.37C17.6972 36.7736 17.8813 38.1244 18.1014 39.4141C18.2575 40.3295 18.4256 41.2083 18.6177 42.0546C20.1305 48.9142 22.6439 53.4018 25.4894 53.4018C28.3349 53.4018 30.8522 48.9264 32.369 42.0546L31.9288 41.8959C30.8522 41.4972 29.7116 41.0293 28.539 40.537Z" fill="#ED1C24"/>
<path d="M13.5945 23.467C10.3034 20.4928 8.4959 18.0135 7.92735 16.6482C9.38723 16.4607 12.4238 16.7989 16.6302 18.1786C17.4312 18.4394 18.2782 18.7409 19.1586 19.0804C19.318 19.1405 19.4719 19.202 19.6258 19.2635C20.5741 19.6378 21.5642 20.0596 22.5949 20.5234C22.7022 20.5857 22.8215 20.6272 22.9348 20.679C23.7466 21.0576 24.5837 21.4648 25.4557 21.9155C25.9093 22.1464 26.3678 22.3848 26.8342 22.6417C27.3006 22.8986 27.7912 23.1695 28.2833 23.446C28.4909 23.5666 28.6952 23.6852 28.9063 23.8078C29.1175 23.9304 29.3217 24.049 29.5294 24.1696C30.0175 24.453 30.4951 24.7304 30.9499 25.0316C31.3307 25.2527 31.6871 25.4922 32.042 25.7261C32.1022 25.7658 32.1646 25.8021 32.2289 25.8347C32.2463 25.8471 32.2649 25.8579 32.2843 25.8668C32.6939 26.0759 33.1683 26.1171 33.6075 25.9817C34.0467 25.8464 34.4166 25.5449 34.6394 25.1409C34.8194 24.8284 34.9049 24.4699 34.8854 24.1093L34.8838 23.9273C34.8747 23.5089 34.8637 23.094 34.8451 22.684C34.8266 22.2741 34.7988 21.9608 34.7944 21.6147C34.774 20.8462 34.7104 20.0805 34.6458 19.3328C34.6347 19.1592 34.6216 18.9891 34.6035 18.8115C34.4968 17.3894 34.3229 16.0119 34.1324 14.7037C33.9962 13.7751 33.8469 12.8853 33.6742 12.0284C32.3024 5.09971 29.9273 0.577913 27.1632 0.62537C25.769 0.642063 24.4445 1.83186 23.2734 3.87202C22.1023 5.91218 21.0911 8.78329 20.3053 12.2588C20.4454 12.3122 20.5909 12.3642 20.724 12.4137C21.7946 12.8079 22.8893 13.2486 23.9923 13.7313C24.7755 10.0593 25.7605 7.38658 26.6518 5.83383C26.8217 5.5379 26.9596 5.29768 27.1007 5.12428C27.949 6.33179 29.0766 9.19153 29.9161 13.6386C30.073 14.491 30.2177 15.3967 30.3463 16.3626C30.3738 16.5318 30.3904 16.7039 30.4199 16.8696C30.5462 17.9038 30.6558 19.0073 30.7389 20.165C29.8078 19.6243 28.8765 19.116 27.958 18.6337C27.6119 18.4327 27.2497 18.2595 26.8916 18.0794C26.5335 17.8993 26.2639 17.7659 25.9473 17.6099C25.2774 17.2813 24.614 16.9657 23.953 16.6701C23.8007 16.5816 23.6373 16.5285 23.4785 16.4595C22.2103 15.8949 20.9692 15.3877 19.762 14.942C18.9052 14.6255 18.0736 14.3375 17.2577 14.0866C10.6662 12.0136 5.59311 11.9829 4.17218 14.4583C2.75126 16.9336 5.30184 21.3345 10.3909 26.049L10.7457 25.7444C11.6225 25.0049 12.5901 24.2438 13.5945 23.467Z" fill="#ED1C24"/>
<path d="M42.873 29.0241L42.51 29.3126C41.554 30.0764 40.5739 30.8158 39.5937 31.5145C43.0343 34.5005 44.9462 36.9381 45.5714 38.2909C45.3496 38.2909 45.0713 38.3275 44.7284 38.3275C42.9254 38.3275 40.11 37.844 36.5282 36.6781C35.6893 36.4072 34.8099 36.0971 33.8903 35.7477L33.3942 35.5568C32.4019 35.1749 31.3774 34.7443 30.3004 34.2568C31.2766 33.7151 32.2258 33.1599 33.1481 32.5911L34.2009 31.9248C34.5115 31.7339 34.8099 31.5186 35.1084 31.3439C35.7619 30.9376 36.3992 30.4907 37.0123 30.056L37.4479 29.7595C38.6257 28.947 39.7389 28.0938 40.7796 27.2691C41.5137 26.6787 42.2115 26.0923 42.873 25.51C48.2215 20.8055 50.9401 16.4342 49.5163 14.021C48.7942 12.8022 47.0961 12.2375 44.7284 12.2375C42.3607 12.2375 39.3638 12.7982 35.9434 13.8626C35.9676 14.0129 35.9998 14.1673 36.024 14.3135C36.2217 15.4551 36.3911 16.6454 36.5282 17.852C40.11 16.6901 42.9254 16.2189 44.7284 16.2189C45.01 16.2172 45.2914 16.2307 45.5714 16.2595C44.9503 17.6123 43.0384 20.0661 39.5937 23.0318C38.9363 23.6047 38.2223 24.1856 37.4479 24.7909L37.0445 25.1078C36.2136 25.7416 35.3061 26.3957 34.3461 27.0538C34.2331 27.135 34.1242 27.2082 34.0113 27.2813C33.2396 27.823 32.4328 28.3511 31.5912 28.8657C31.1475 29.146 30.6957 29.4182 30.2319 29.6782C29.768 29.9382 29.2437 30.2673 28.7354 30.5557C28.5176 30.6858 28.2998 30.8036 28.086 30.9254L27.4286 31.287C26.9163 31.5714 26.404 31.8436 25.9039 32.0995C25.4037 32.3555 24.9963 32.5749 24.5526 32.7983L24.48 32.8308C24.213 32.9815 23.9907 33.2011 23.836 33.4671C23.6812 33.7331 23.5997 34.0358 23.5997 34.3441C23.5997 34.6524 23.6812 34.9551 23.836 35.2211C23.9907 35.4871 24.213 35.7067 24.48 35.8574L24.5123 35.8777L24.6051 35.9224C24.6199 35.9329 24.6362 35.9412 24.6535 35.9468L24.7906 36.0199L25.9039 36.5724L26.88 37.0437C27.5899 37.3809 28.2877 37.7018 28.9815 38.0025L29.4615 38.2178C30.806 38.7947 32.1034 39.312 33.3538 39.7697C34.2493 40.0947 35.1205 40.3913 35.9676 40.6513C39.388 41.7197 42.4212 42.2763 44.7526 42.2763C47.084 42.2763 48.8184 41.7035 49.5405 40.4928C50.9482 38.104 48.2215 33.7286 42.873 29.0241Z" fill="#ED1C24"/>
</g>
</g>
<defs>
<clipPath id="clip0_6742_30900">
<rect width="142" height="56" fill="white"/>
</clipPath>
</defs>
</svg>